<svg id="Layer_1" data-name="Layer 1" xmlns="http://www.w3.org/2000/svg" viewBox="0 0 74.39 45.57"><defs><style>.cls-1{fill:#373737;}</style></defs><title>drums-</title><path class="cls-1" d="M41.39,39.57a4,4,0,1,0-4-4A4,4,0,0,0,41.39,39.57Zm0-6a2,2,0,1,1-2,2A2,2,0,0,1,41.39,33.57Z"/><path class="cls-1" d="M66.39,9.35V43.57h2a1,1,0,0,1,0,2h-6a1,1,0,0,1,0-2h2V9.85l-6.76,1.69a1,1,0,0,1-1.21-.72,1,1,0,0,1,.72-1.22l7.25-1.81V7.7l-1-3.88a1,1,0,0,1,.72-1.22,1,1,0,0,1,1.22.73l1,4,6.79-1.7a1,1,0,0,1,1.22.73,1,1,0,0,1-.73,1.21Z"/><path class="cls-1" d="M.76,7.54A1,1,0,0,1,0,6.33,1,1,0,0,1,1.24,5.6L8,7.3l1-4a1,1,0,0,1,1.21-.73A1,1,0,0,1,11,3.82L10,7.7v.09L17.24,9.6A1,1,0,0,1,18,10.82a1,1,0,0,1-1.21.72L10,9.85V43.57h2a1,1,0,0,1,0,2H6a1,1,0,0,1,0-2H8V9.35Z"/><path class="cls-1" d="M61.39,17.57h-2a1,1,0,0,0-2,0H45.84a15,15,0,0,0-4.45-1.69V14.57h1a1,1,0,0,0,2,0h5a1,1,0,1,0,2,0h2a1,1,0,0,0,1-1v-10a1,1,0,0,0-1-1h-2a1,1,0,0,0-2,0h-5a1,1,0,0,0-2,0h-2a1,1,0,0,0-1,1V15.63c-.34,0-.67-.06-1-.06s-.67,0-1,.06V3.57a1,1,0,0,0-1-1h-2a1,1,0,0,0-2,0h-5a1,1,0,0,0-2,0h-2a1,1,0,0,0-1,1v10a1,1,0,0,0,1,1h2a1,1,0,0,0,2,0h5a1,1,0,0,0,2,0h1v1.31a15,15,0,0,0-8.15,4.69H20.39a1,1,0,0,0-2,0h-2a1,1,0,0,0-1,1v16a1,1,0,0,0,1,1h.48l-2.4,5.61A1,1,0,0,0,15,45.49a.92.92,0,0,0,.4.08,1,1,0,0,0,.92-.6l2.74-6.4h1.8v6a1,1,0,0,0,2,0v-6h2.87a12.34,12.34,0,0,0,2.09,2.56L25,43.86a1,1,0,0,0,1.4,1.43l2.85-2.8a15.55,15.55,0,0,0,9.12,3.08,14.94,14.94,0,0,0,9.86-3.72l3.43,3.43a1,1,0,0,0,1.41,0,1,1,0,0,0,0-1.41l-3.43-3.43a14.87,14.87,0,0,0,3.42-12.87h4.31a1,1,0,1,0,2,0h2a1,1,0,0,0,1-1v-8A1,1,0,0,0,61.39,17.57Zm-10-13h1v8h-1Zm-7,0h5v8h-5Zm-3,0h1v8h-1Zm-16,8h-1v-8h1Zm7,0h-5v-8h5Zm-14,24h-1v-14h1Zm16-24v-8h1v8Zm-14,24v-14h5.33a14.91,14.91,0,0,0-1.07,14Zm18,7a13,13,0,1,1,13-13A13,13,0,0,1,38.39,43.57Zm19-18H52.51a15,15,0,0,0-4-6h8.84Zm3,0h-1v-6h1Z"/></svg>