<svg id="Layer_1" data-name="Layer 1" xmlns="http://www.w3.org/2000/svg" viewBox="0 0 58.33 57.84"><defs><style>.cls-1{fill:#373737;}</style></defs><title>flame-london</title><path class="cls-1" d="M14.2,33a1,1,0,0,0,.4-.09,1,1,0,0,0,.51-1.32,13.7,13.7,0,0,1-.62-9.69c.77-1.92,3-7.21,4.48-10.69,1.45,5,5.18,6.05,5.37,6.1a1,1,0,0,0,1.08-.41A17.32,17.32,0,0,0,27.65,3.09c8.84,5.52,8.75,13.62,8.74,14a1,1,0,0,0,.53.92A1,1,0,0,0,38,17.91c1.82-1.33,2.7-3.75,3.12-5.53A17.88,17.88,0,0,1,44.54,27.1a1,1,0,1,0,2,.43A19.89,19.89,0,0,0,41.15,9.39a1,1,0,0,0-1-.2,1,1,0,0,0-.64.86,13.27,13.27,0,0,1-1.32,4.62c-.64-3.58-3-10.24-11.76-14.57a1,1,0,0,0-1.14.18A1,1,0,0,0,25,1.4c0,.07,3,7.19-.83,13.72-1.19-.63-3.57-2.51-3.8-7.53a1,1,0,0,0-1.91-.35c0,.11-4.67,11-5.86,13.93a15.68,15.68,0,0,0,.65,11.25A1,1,0,0,0,14.2,33Z"/><path class="cls-1" d="M38.19,29.23A1,1,0,0,0,38,30.62a1,1,0,0,0,1.4.21c4-2.95,2.68-11.38,2.62-11.74a1,1,0,0,0-1.85-.34,8.76,8.76,0,0,1-5,3.77C35,18.7,32.29,12.23,31.94,11.4a1,1,0,0,0-1.91.46c.17,2.7-2.3,7.37-4.45,9.29-.72.64-1.17.76-1.31.73-1.64-.29-3.31-2.48-3.81-3.3a1,1,0,0,0-.81-.47,1,1,0,0,0-.84.4c-4.42,5.91-.44,12.6-.27,12.88a1,1,0,0,0,.86.48,1,1,0,0,0,.51-.15,1,1,0,0,0,.34-1.37c-.13-.22-2.92-5-.59-9.46a7.88,7.88,0,0,0,4.25,3,3.67,3.67,0,0,0,3-1.21,18.43,18.43,0,0,0,4.47-7.15c1.11,3.12,2.1,6.66,1.76,8.08a1,1,0,0,0,1.1,1.22,11.45,11.45,0,0,0,6-2.95C40.33,24.44,40,27.88,38.19,29.23Z"/><path class="cls-1" d="M10.33,40.05l-3.4-.31a1,1,0,0,0-.18,2l3.4.31h.09a1,1,0,0,0,.09-2Z"/><path class="cls-1" d="M37.81,41.89l-15.13-1.2a1,1,0,0,0-.16,2l15.14,1.19h.08a1,1,0,0,0,.07-2Z"/><path class="cls-1" d="M22.11,39.25a1,1,0,0,0-.91-1.09l-7.07-.61a1,1,0,0,0-1.08.91A1,1,0,0,0,14,39.55l7.07.61h.09A1,1,0,0,0,22.11,39.25Z"/><path class="cls-1" d="M53.66,26.93a1,1,0,0,0-1-.11L32.87,36.1l-4-.29,5-1.87a1,1,0,0,0,.65-1c-.07-.63-.4-2.74-1.49-3.55A1.69,1.69,0,0,0,31.77,29c-5.85,1-16.72,4.91-18.37,5.51l-9.58-.61a1,1,0,0,0-.59.15A7.32,7.32,0,0,0,.06,38.72a6.93,6.93,0,0,0,2,5.59,1,1,0,0,0,.68.34l9.45.71-2.1,1a1,1,0,0,0-.54.59,8.1,8.1,0,0,0,.26,6.53,9.92,9.92,0,0,0,5.55,4.37,1.15,1.15,0,0,0,.26,0h0a.87.87,0,0,0,.39-.1h.05L36.85,47.41a1.06,1.06,0,0,0,.23-.19l6.19.47h.08a1,1,0,0,0,.55-.17,7.78,7.78,0,0,0,3.22-5,4.71,4.71,0,0,0,0-.75l9.59-4.41A1.1,1.1,0,0,0,57.2,37S60,31.76,53.66,26.93ZM2,39a5.15,5.15,0,0,1,2-3.09l9.43.6a1,1,0,0,0,.41-.06c.12,0,12-4.35,18.08-5.47a4.13,4.13,0,0,1,.5,1.34l-8.58,3.18a1,1,0,0,0,.27,1.94l17.92,1.32a5.1,5.1,0,0,0-1,1.94,6.76,6.76,0,0,0,.71,4.84L3.33,42.68A4.77,4.77,0,0,1,2,39ZM11.61,52.5a5.47,5.47,0,0,1-.54-3.24,5.4,5.4,0,0,1,3.64,2.06A5.17,5.17,0,0,1,15,55.51,7.18,7.18,0,0,1,11.61,52.5ZM17.18,55a6.51,6.51,0,0,0-.78-4.71,6.84,6.84,0,0,0-4-2.76l3.85-1.74a.87.87,0,0,0,.11-.09l9.69.73-4.89,2.27a1,1,0,0,0,.43,1.91.92.92,0,0,0,.42-.1l7.76-3.6a1.08,1.08,0,0,0,.24-.18l3.34.25ZM43.72,45A5.12,5.12,0,0,1,43,41.3a3.25,3.25,0,0,1,1.33-1.82,4.19,4.19,0,0,1,.86,2.83A4.91,4.91,0,0,1,43.72,45Zm11.85-9.31-8.84,4.06a8.23,8.23,0,0,0-1.65-2.51,1,1,0,0,0-.66-.32l-7.48-.55,16-7.51C56.6,32,55.9,34.85,55.57,35.73Z"/><path class="cls-1" d="M51,32.4l-4.92,2.29A1,1,0,0,0,45.63,36a1,1,0,0,0,.91.58,1.06,1.06,0,0,0,.42-.09l4.93-2.29A1,1,0,0,0,51,32.4Z"/><path class="cls-1" d="M18.69,46.5l-1.21.56A1,1,0,0,0,17.9,49a1.07,1.07,0,0,0,.43-.09l1.2-.56a1,1,0,1,0-.84-1.82Z"/></svg>