<svg id="Layer_1" data-name="Layer 1" xmlns="http://www.w3.org/2000/svg" viewBox="0 0 51.71 63.17"><defs><style>.cls-1{fill:#373737;}</style></defs><title>Artboard 11</title><path class="cls-1" d="M16,42.6a3.34,3.34,0,1,0,3.33,3.33A3.34,3.34,0,0,0,16,42.6Zm0,4.67a1.34,1.34,0,1,1,1.33-1.34A1.34,1.34,0,0,1,16,47.27Z"/><path class="cls-1" d="M9.86,48.55a1,1,0,0,0-.72-.23,1,1,0,0,0-.69.35l-1.86,2.2a1,1,0,0,0,.12,1.41l4.9,4.15a1,1,0,0,0,.65.24,1,1,0,0,0,.76-.35l1.87-2.2a1,1,0,0,0,.23-.73,1,1,0,0,0-.35-.68Zm2.28,5.71L8.77,51.4l.56-.67,3.38,2.86Z"/><path class="cls-1" d="M51.15,6.49c-1.06-1.09-3.22-.78-3.65-.71a.93.93,0,0,0-.36.14L45.44,7,45,6.1a1,1,0,0,0-1.75,1l.54,1-1.14.72L42,7.59a1,1,0,0,0-1.36-.39,1,1,0,0,0-.39,1.36l.7,1.27-1.19.75-.63-1.14a1,1,0,1,0-1.75,1L38,11.65l-1.46.92a1,1,0,0,0-.39,1.25,2.11,2.11,0,0,1,.05,1.66L20.08,36.08a1.81,1.81,0,0,1-1.91,0c-.36-.36-.47-1.3.32-2.88.31-.62,1.25-2.5-.08-3.33-1.51-.95-4.42,1.32-5.16,2.27A11.75,11.75,0,0,0,12,35.43c-.63,2.12-1.49,5-2.88,6a19.07,19.07,0,0,1-1.88,1C3.9,44.16-1.1,46.78,0,52.14,1.28,58.3,10,62.25,10.42,62.42l.07,0a11.38,11.38,0,0,0,3.73.72,6,6,0,0,0,3-.76c2.74-1.58,3.4-5.09,3.88-7.65l.07-.37c.51-2.66.51-2.66,2.58-4.42.5-.43,1.12-.95,1.88-1.63,2.44-2.18,3.44-3.94,3-5.37a2,2,0,0,0-1.59-1.46c-.83-.16-1.43.44-1.95,1-.77.78-1.3,1.24-2.16.94-.29-.09-.53-.46-.73-1L40.74,18.85a.77.77,0,0,0,.07-.16l0,0a8.81,8.81,0,0,1,3.29-1.11,1,1,0,0,0,.66-.42c.12-.17,2.94-4.27,3.76-5.72a8.25,8.25,0,0,1,2.6-2.3,1,1,0,0,0,.48-.66A2.13,2.13,0,0,0,51.15,6.49ZM32,26.75l-1.29-1,3.21-4.1,1.29,1Zm-4.44,5.68-1.3-1,3.22-4.1,1.29,1Zm-1,11.46c.06-.06.12-.13.19-.19-.07.39-.45,1.37-2.44,3.15-.75.66-1.35,1.17-1.85,1.6-2.35,2-2.62,2.32-3.25,5.57l-.07.37c-.41,2.18-1,5.17-2.91,6.28-1.19.7-2.9.66-5.08-.09C10.62,60.31,3,56.72,2,51.73c-.74-3.59,2.35-5.53,6.17-7.52.8-.43,1.5-.79,2-1.16,2-1.33,2.94-4.5,3.7-7a13.25,13.25,0,0,1,.95-2.63,6.54,6.54,0,0,1,2.08-1.53c-.05.13-.13.29-.22.48-1.55,3.1-.47,4.66.07,5.19a3.29,3.29,0,0,0,2.91.79c0,2.3.42,6.24,2.7,7C24.48,46,25.86,44.64,26.6,43.89Zm-4.9-6.62L25,33l1.29,1-4.56,5.83A18.31,18.31,0,0,1,21.7,37.27Zm14.75-16.2-1.28-1,2.08-2.66,1.29,1ZM46.83,10.44c-.65,1.14-2.73,4.2-3.43,5.23a10.58,10.58,0,0,0-3.52,1.24l-1.64-1.27a4.1,4.1,0,0,0,0-1.79L48,7.72a4.21,4.21,0,0,1,1.51.06A9.07,9.07,0,0,0,46.83,10.44Z"/></svg>