<svg id="Layer_1" data-name="Layer 1" xmlns="http://www.w3.org/2000/svg" viewBox="0 0 63.34 54.54"><defs><style>.cls-1{fill:#373737;}</style></defs><title>stage-denver</title><path class="cls-1" d="M48.19,24.88a1,1,0,0,0,1-1V21.63a1,1,0,1,0-2,0v2.25A1,1,0,0,0,48.19,24.88Z"/><path class="cls-1" d="M40.39,19.46a1.26,1.26,0,0,0,.33-.05l2-.69A1,1,0,0,0,42,16.84l-2,.68a1,1,0,0,0,.32,1.94Z"/><path class="cls-1" d="M15.38,20.63a1,1,0,0,0-1,1v2.25a1,1,0,0,0,2,0V21.63A1,1,0,0,0,15.38,20.63Z"/><path class="cls-1" d="M23.51,17.52l-2.15-.75a1,1,0,1,0-.65,1.89l2.14.75a1.26,1.26,0,0,0,.33.05,1,1,0,0,0,.33-1.94Z"/><path class="cls-1" d="M62.34,47.15H60V2.72a.93.93,0,0,0,0-.22.94.94,0,0,0,0-.16.61.61,0,0,0-.1-.14A.7.7,0,0,0,59.67,2V2l-.13-.07a1.18,1.18,0,0,0-.19-.11l-.2,0-.15,0H4.58l-.11,0-.2,0-.18.09L4,2l0,.05a.7.7,0,0,0-.14.16.78.78,0,0,0-.1.15.85.85,0,0,0-.06.17.71.71,0,0,0,0,.2s0,0,0,.07v44.4H1.23a1,1,0,0,0-1,1v5.39a1,1,0,0,0,1,1H62.34a1,1,0,0,0,1-1V48.15A1,1,0,0,0,62.34,47.15ZM41.66,10.76V5l6.24,5.73Zm-27.9,0L20.14,5v5.76Zm-8.18-5,3.78,5H5.58ZM49.47,9.48,43.23,3.75h6.24Zm2-5.73h5.29L51.47,9.67ZM29.91,9.22,23.77,3.75h6.14Zm2-5.47h6.23L31.91,9.63Zm-21.54,5-3.78-5h3.78Zm2-5h6.17L12.37,9.32ZM22.14,5l6.49,5.78H22.14Zm17.52.09v5.69h-6ZM58,5.37v5.39H53.18ZM5.58,12.76h5.31a1.43,1.43,0,0,0,.22,0,1.09,1.09,0,0,0,.25,0h4l-1.93,1.3a1,1,0,0,0-.39,1.15l1.35,4a1,1,0,0,0,.66.63.93.93,0,0,0,.29.05,1,1,0,0,0,.6-.21l3.41-2.57a1,1,0,0,0,.11-1.5l-2.72-2.78-.09-.06H30.84a1.85,1.85,0,0,0,.23,0,1,1,0,0,0,.24,0H46.89s-.07,0-.09.06L44.07,15.6a1,1,0,0,0-.28.78,1,1,0,0,0,.39.72l3.41,2.57a1,1,0,0,0,.6.21,1,1,0,0,0,.3-.05,1,1,0,0,0,.65-.63l1.35-4a1,1,0,0,0-.39-1.15l-1.93-1.3h2.48a1.17,1.17,0,0,0,.26,0,1.7,1.7,0,0,0,.22,0H58V47.15H32.88a1.24,1.24,0,0,0,0-.16,1,1,0,0,0-1-1h-1.1v-15a3.2,3.2,0,0,1,.15-.7,1,1,0,0,0,.65.23.94.94,0,0,0,.55-.17l3.24-2.19a1,1,0,0,0,.27-1.38c-.15-.22-.62-.89-.76-1.11l-.49-.68a1,1,0,0,0-1.38-.27l-3.24,2.19a1,1,0,0,0-.27,1.38c0,.06.09.08.13.13a5.66,5.66,0,0,0-.85,2.51V46h-1.1a1,1,0,0,0-1,1,1.1,1.1,0,0,0,0,.16H5.58Zm10.35,2.05,1.35,1.38-1.4,1-.66-1.95Zm31.71,0,.71.48-.66,1.95-1.4-1Zm13.7,37.73H2.23V49.15H61.34Z"/></svg>