<svg id="Layer_1" data-name="Layer 1" xmlns="http://www.w3.org/2000/svg" viewBox="0 0 59.63 54.82"><defs><style>.cls-1{fill:#373737;}</style></defs><title>tent-sanfrancisco</title><path class="cls-1" d="M58.63,48.25a1,1,0,0,0-1,1v3.29H54.36V38a1,1,0,0,0-.26-.74L31,17.22V10.9L42.45,6.54a1,1,0,0,0,0-1.87L30.39.07a1,1,0,0,0-.93.11A1,1,0,0,0,29,1V17.22h0L6,37.28A1.43,1.43,0,0,0,5.7,38V52.54H2V50.25a1,1,0,0,0-2,0v3.29a1,1,0,0,0,1,1H58.63a1,1,0,0,0,1-1V49.25A1,1,0,0,0,58.63,48.25ZM31,2.45l8.26,3.16L31,8.76Zm-2,50.1H19.45L29,34.07Zm0-23.08h0L17.23,52.55H7.7V38.42L29,20.08Zm2,23.08V33.92L40.5,52.55Zm21.33,0H42.72L31,29.32V20.08L52.36,38.42Z"/><path class="cls-1" d="M11.84,44.31h6.77a1,1,0,0,0,1-1V38.55a1,1,0,0,0-1-1H11.84a1,1,0,0,0-1,1v4.76A1,1,0,0,0,11.84,44.31Zm1-4.76h4.77v2.76H12.84Z"/><path class="cls-1" d="M41.34,44.31h6.77a1,1,0,0,0,1-1V38.55a1,1,0,0,0-1-1H41.34a1,1,0,0,0-1,1v4.76A1,1,0,0,0,41.34,44.31Zm1-4.76h4.77v2.76H42.34Z"/></svg>