<svg id="Layer_1" data-name="Layer 1" xmlns="http://www.w3.org/2000/svg" viewBox="0 0 48.55 53.21"><defs><style>.cls-1{fill:#3b3a3e;}</style></defs><title>microphone-tokyo</title><path class="cls-1" d="M46.59,42.26l.45-.42a1.12,1.12,0,0,0,.09-1.5L30.86,20.42a8.28,8.28,0,0,0,.1-1.23,8.91,8.91,0,0,0-1.54-5l0,0a8.93,8.93,0,1,0-12.9,12,.27.27,0,0,0,.08.07A8.87,8.87,0,0,0,22,28.13,9.36,9.36,0,0,0,23.43,28L43,44.35a1,1,0,0,0,.7.26,1.08,1.08,0,0,0,.77-.31l.52-.49a4.44,4.44,0,0,1,1,2.44,5.21,5.21,0,0,1-1.77,3.81,2.68,2.68,0,0,1-2.1.92c-3.12-.09-7.24-4.91-8.79-6.73L33.1,44C30.48,41,25,34.58,20.45,37.89c-2.78,2-3.21,5.31-1.08,8.39A1.1,1.1,0,0,0,21.19,45c-1.47-2.13-1.27-4,.56-5.35,2.93-2.12,7.65,3.4,9.66,5.76l.22.25c3.12,3.65,6.8,7.39,10.4,7.5h.16a4.85,4.85,0,0,0,3.6-1.59,7.28,7.28,0,0,0,2.38-5.49A6.7,6.7,0,0,0,46.59,42.26ZM15.3,19.19A6.72,6.72,0,0,1,27.11,14.8c-4.91,7-8.44,8.9-9.62,9.35A6.71,6.71,0,0,1,15.3,19.19Zm4.45,6.33c1.92-1.11,4.89-3.5,8.59-8.62a6.71,6.71,0,0,1-6.32,9A6.81,6.81,0,0,1,19.75,25.52ZM43.66,42,25.93,27.22A8.94,8.94,0,0,0,30.1,23L44.77,41Z"/><path class="cls-1" d="M36.24,5A14,14,0,0,1,35.51.94a1,1,0,0,0-2-.2L32,6.57a1.33,1.33,0,0,0-.28-.1,2.29,2.29,0,1,0-1.19,4.43,2.46,2.46,0,0,0,.59.08,2.3,2.3,0,0,0,2.22-1.7l1-3.69a2.8,2.8,0,0,0,.26.52A1,1,0,1,0,36.24,5ZM31,9a.3.3,0,0,1-.21-.36.28.28,0,0,1,.28-.22h.08a.27.27,0,0,1,.18.14.25.25,0,0,1,0,.22A.3.3,0,0,1,31,9Z"/><path class="cls-1" d="M9.28,12.86a.43.43,0,0,1,0-.07v0L6.13,7.53a1,1,0,0,0-.58-.45c-1-.29-2.75.63-5.2,2.74A1,1,0,0,0,.09,11l2.13,4.6-.12,0A2.16,2.16,0,0,0,1,16.84a2.12,2.12,0,0,0,2,2.85,2.16,2.16,0,0,0,.89-.19,2.14,2.14,0,0,0,1-2.82h0L2.23,10.86A15.52,15.52,0,0,1,4.76,9.14l1.62,2.73a2.12,2.12,0,1,0,2.9,1ZM3.1,17.52a.13.13,0,0,1-.06.16.15.15,0,0,1-.16-.06c0-.05,0-.14.15-.16a.09.09,0,0,1,.07.06ZM7.24,13.8c0-.05,0-.14.15-.16s0,0,.06,0v0a.13.13,0,0,1-.06.15A.12.12,0,0,1,7.24,13.8Z"/></svg>